# Made in Blockbench 4.12.4
mtllib WaterTexture.mtl

o cuboid
v 0.5 0.5 0.5
v 0.5 0.5 -0.5
v 0.5 0 0.5
v 0.5 0 -0.5
v -0.5 0.5 0.5
v -0.5 0.5 -0.5
v -0.5 0 0.5
v -0.5 0 -0.5
vt 1 1
vt 0.5 1
vt 0.5 0.75
vt 1 0.75
vt 1 0.5
vt 1 0.75
vt 0.5 0.75
vt 0.5 0.5
vt 0.5 0.5
vt 0.5 1
vt 0 1
vt 0 0.5
vt 1 0.25
vt 1 0.5
vt 0.5 0.5
vt 0.5 0.25
vt 1 0.25
vt 0.5 0.25
vt 0.5 0
vt 1 0
vt 0 0
vt 0.5 0
vt 0.5 0.5
vt 0 0.5
vn 1 0 0
vn -1 0 0
vn 0 -1 0
vn 0 0 1
vn 0 0 -1
vn 0 1 0
usemtl m_5e945f36-9e8d-e0f7-1f93-8b56ad00fd51
f 2/1/1 1/2/1 3/3/1 4/4/1
f 7/5/2 5/6/2 6/7/2 8/8/2
f 4/9/3 3/10/3 7/11/3 8/12/3
f 3/13/4 1/14/4 5/15/4 7/16/4
f 6/17/5 2/18/5 4/19/5 8/20/5
f 5/21/6 1/22/6 2/23/6 6/24/6